<svg width="180" height="180" viewBox="0 0 180 180" xmlns="http://www.w3.org/2000/svg">
  <rect width="180" height="180" rx="37" fill="#042b38"/>
  <rect x="67.76" y="18.85" width="4.45" height="4.45" fill="#00d4d5" opacity="0.26"/>
  <rect x="72.21" y="18.85" width="4.45" height="4.45" fill="#00d4d5" opacity="0.4"/>
  <rect x="76.66" y="18.85" width="8.89" height="4.45" fill="#00d4d5" opacity="0.55"/>
  <rect x="85.55" y="18.85" width="4.45" height="4.45" fill="#00d4d5" opacity="0.4"/>
  <rect x="90.00" y="18.85" width="8.89" height="4.45" fill="#00d4d5" opacity="0.14"/>
  <rect x="98.89" y="18.85" width="13.34" height="4.45" fill="#00d4d5" opacity="0.4"/>
  <rect x="112.24" y="18.85" width="4.45" height="4.45" fill="#00d4d5" opacity="0.26"/>
  <rect x="58.87" y="23.29" width="4.45" height="4.45" fill="#00d4d5" opacity="0.26"/>
  <rect x="63.32" y="23.29" width="4.45" height="4.45" fill="#00d4d5" opacity="0.7"/>
  <rect x="67.76" y="23.29" width="13.34" height="4.45" fill="#00d4d5" opacity="0.86"/>
  <rect x="81.11" y="23.29" width="4.45" height="4.45" fill="#00d4d5" opacity="0.7"/>
  <rect x="85.55" y="23.29" width="8.89" height="4.45" fill="#00d4d5" opacity="0.55"/>
  <rect x="94.45" y="23.29" width="4.45" height="4.45" fill="#00d4d5" opacity="0.4"/>
  <rect x="98.89" y="23.29" width="17.79" height="4.45" fill="#00d4d5" opacity="0.55"/>
  <rect x="116.68" y="23.29" width="4.45" height="4.45" fill="#00d4d5" opacity="0.4"/>
  <rect x="121.13" y="23.29" width="4.45" height="4.45" fill="#00d4d5" opacity="0.26"/>
  <rect x="54.42" y="27.74" width="4.45" height="4.45" fill="#00d4d5" opacity="0.4"/>
  <rect x="58.87" y="27.74" width="40.02" height="4.45" fill="#00d4d5" opacity="0.86"/>
  <rect x="98.89" y="27.74" width="13.34" height="4.45" fill="#00d4d5" opacity="0.7"/>
  <rect x="112.24" y="27.74" width="8.89" height="4.45" fill="#00d4d5" opacity="0.55"/>
  <rect x="121.13" y="27.74" width="4.45" height="4.45" fill="#00d4d5" opacity="0.4"/>
  <rect x="125.58" y="27.74" width="4.45" height="4.45" fill="#00d4d5" opacity="0.26"/>
  <rect x="49.98" y="32.19" width="4.45" height="4.45" fill="#00d4d5" opacity="0.4"/>
  <rect x="54.42" y="32.19" width="22.24" height="4.45" fill="#00d4d5" opacity="0.86"/>
  <rect x="76.66" y="32.19" width="8.89" height="4.45" fill="#00d4d5" opacity="1"/>
  <rect x="85.55" y="32.19" width="17.79" height="4.45" fill="#00d4d5" opacity="0.86"/>
  <rect x="103.34" y="32.19" width="17.79" height="4.45" fill="#00d4d5" opacity="0.7"/>
  <rect x="121.13" y="32.19" width="4.45" height="4.45" fill="#00d4d5" opacity="0.55"/>
  <rect x="125.58" y="32.19" width="4.45" height="4.45" fill="#00d4d5" opacity="0.4"/>
  <rect x="130.02" y="32.19" width="4.45" height="4.45" fill="#00d4d5" opacity="0.14"/>
  <rect x="45.53" y="36.64" width="4.45" height="4.45" fill="#00d4d5" opacity="0.26"/>
  <rect x="49.98" y="36.64" width="22.24" height="4.45" fill="#00d4d5" opacity="0.86"/>
  <rect x="72.21" y="36.64" width="4.45" height="4.45" fill="#00d4d5" opacity="1"/>
  <rect x="76.66" y="36.64" width="26.68" height="4.45" fill="#00d4d5" opacity="0.86"/>
  <rect x="103.34" y="36.64" width="8.89" height="4.45" fill="#00d4d5" opacity="0.7"/>
  <rect x="112.24" y="36.64" width="13.34" height="4.45" fill="#00d4d5" opacity="0.55"/>
  <rect x="125.58" y="36.64" width="8.89" height="4.45" fill="#00d4d5" opacity="0.4"/>
  <rect x="41.08" y="41.08" width="4.45" height="4.45" fill="#00d4d5" opacity="0.14"/>
  <rect x="45.53" y="41.08" width="4.45" height="4.45" fill="#00d4d5" opacity="0.7"/>
  <rect x="49.98" y="41.08" width="26.68" height="4.45" fill="#00d4d5" opacity="0.86"/>
  <rect x="76.66" y="41.08" width="4.45" height="4.45" fill="#00d4d5" opacity="0.7"/>
  <rect x="81.11" y="41.08" width="22.24" height="4.45" fill="#00d4d5" opacity="0.86"/>
  <rect x="103.34" y="41.08" width="13.34" height="4.45" fill="#00d4d5" opacity="0.7"/>
  <rect x="116.68" y="41.08" width="13.34" height="4.45" fill="#00d4d5" opacity="0.55"/>
  <rect x="130.02" y="41.08" width="4.45" height="4.45" fill="#00d4d5" opacity="0.4"/>
  <rect x="134.47" y="41.08" width="4.45" height="4.45" fill="#00d4d5" opacity="0.26"/>
  <rect x="41.08" y="45.53" width="4.45" height="4.45" fill="#00d4d5" opacity="0.4"/>
  <rect x="45.53" y="45.53" width="26.68" height="4.45" fill="#00d4d5" opacity="0.86"/>
  <rect x="72.21" y="45.53" width="4.45" height="4.45" fill="#00d4d5" opacity="0.7"/>
  <rect x="76.66" y="45.53" width="35.58" height="4.45" fill="#00d4d5" opacity="0.86"/>
  <rect x="112.24" y="45.53" width="4.45" height="4.45" fill="#00d4d5" opacity="0.7"/>
  <rect x="116.68" y="45.53" width="4.45" height="4.45" fill="#00d4d5" opacity="0.55"/>
  <rect x="121.13" y="45.53" width="4.45" height="4.45" fill="#00d4d5" opacity="0.4"/>
  <rect x="125.58" y="45.53" width="8.89" height="4.45" fill="#00d4d5" opacity="0.55"/>
  <rect x="134.47" y="45.53" width="4.45" height="4.45" fill="#00d4d5" opacity="0.26"/>
  <rect x="36.64" y="49.98" width="4.45" height="4.45" fill="#00d4d5" opacity="0.14"/>
  <rect x="41.08" y="49.98" width="4.45" height="4.45" fill="#00d4d5" opacity="0.7"/>
  <rect x="45.53" y="49.98" width="22.24" height="4.45" fill="#00d4d5" opacity="0.86"/>
  <rect x="67.76" y="49.98" width="8.89" height="4.45" fill="#00d4d5" opacity="0.7"/>
  <rect x="76.66" y="49.98" width="4.45" height="4.45" fill="#00d4d5" opacity="0.86"/>
  <rect x="81.11" y="49.98" width="13.34" height="4.45" fill="#00d4d5" opacity="1"/>
  <rect x="94.45" y="49.98" width="17.79" height="4.45" fill="#00d4d5" opacity="0.86"/>
  <rect x="112.24" y="49.98" width="8.89" height="4.45" fill="#00d4d5" opacity="0.7"/>
  <rect x="121.13" y="49.98" width="4.45" height="4.45" fill="#00d4d5" opacity="0.4"/>
  <rect x="125.58" y="49.98" width="4.45" height="4.45" fill="#00d4d5" opacity="0.26"/>
  <rect x="130.02" y="49.98" width="4.45" height="4.45" fill="#00d4d5" opacity="0.55"/>
  <rect x="134.47" y="49.98" width="4.45" height="4.45" fill="#00d4d5" opacity="0.4"/>
  <rect x="138.92" y="49.98" width="4.45" height="4.45" fill="#00d4d5" opacity="0.14"/>
  <rect x="36.64" y="54.42" width="4.45" height="4.45" fill="#00d4d5" opacity="0.26"/>
  <rect x="41.08" y="54.42" width="22.24" height="4.45" fill="#00d4d5" opacity="0.86"/>
  <rect x="63.32" y="54.42" width="8.89" height="4.45" fill="#00d4d5" opacity="0.7"/>
  <rect x="72.21" y="54.42" width="8.89" height="4.45" fill="#00d4d5" opacity="0.86"/>
  <rect x="81.11" y="54.42" width="13.34" height="4.45" fill="#00d4d5" opacity="1"/>
  <rect x="94.45" y="54.42" width="17.79" height="4.45" fill="#00d4d5" opacity="0.86"/>
  <rect x="112.24" y="54.42" width="8.89" height="4.45" fill="#00d4d5" opacity="0.7"/>
  <rect x="121.13" y="54.42" width="4.45" height="4.45" fill="#00d4d5" opacity="0.4"/>
  <rect x="125.58" y="54.42" width="4.45" height="4.45" fill="#00d4d5" opacity="0.14"/>
  <rect x="130.02" y="54.42" width="4.45" height="4.45" fill="#00d4d5" opacity="0.55"/>
  <rect x="134.47" y="54.42" width="4.45" height="4.45" fill="#00d4d5" opacity="0.4"/>
  <rect x="138.92" y="54.42" width="4.45" height="4.45" fill="#00d4d5" opacity="0.14"/>
  <rect x="36.64" y="58.87" width="4.45" height="4.45" fill="#00d4d5" opacity="0.55"/>
  <rect x="41.08" y="58.87" width="22.24" height="4.45" fill="#00d4d5" opacity="0.86"/>
  <rect x="63.32" y="58.87" width="4.45" height="4.45" fill="#00d4d5" opacity="0.7"/>
  <rect x="67.76" y="58.87" width="4.45" height="4.45" fill="#00d4d5" opacity="0.55"/>
  <rect x="72.21" y="58.87" width="8.89" height="4.45" fill="#00d4d5" opacity="0.86"/>
  <rect x="81.11" y="58.87" width="13.34" height="4.45" fill="#00d4d5" opacity="1"/>
  <rect x="94.45" y="58.87" width="22.24" height="4.45" fill="#00d4d5" opacity="0.86"/>
  <rect x="116.68" y="58.87" width="4.45" height="4.45" fill="#00d4d5" opacity="0.7"/>
  <rect x="121.13" y="58.87" width="4.45" height="4.45" fill="#00d4d5" opacity="0.4"/>
  <rect x="125.58" y="58.87" width="4.45" height="4.45" fill="#00d4d5" opacity="0.14"/>
  <rect x="130.02" y="58.87" width="4.45" height="4.45" fill="#00d4d5" opacity="0.26"/>
  <rect x="134.47" y="58.87" width="4.45" height="4.45" fill="#00d4d5" opacity="0.4"/>
  <rect x="138.92" y="58.87" width="4.45" height="4.45" fill="#00d4d5" opacity="0.26"/>
  <rect x="36.64" y="63.32" width="4.45" height="4.45" fill="#00d4d5" opacity="0.55"/>
  <rect x="41.08" y="63.32" width="4.45" height="4.45" fill="#00d4d5" opacity="0.7"/>
  <rect x="45.53" y="63.32" width="8.89" height="4.45" fill="#00d4d5" opacity="0.86"/>
  <rect x="54.42" y="63.32" width="4.45" height="4.45" fill="#00d4d5" opacity="0.7"/>
  <rect x="58.87" y="63.32" width="4.45" height="4.45" fill="#00d4d5" opacity="0.86"/>
  <rect x="63.32" y="63.32" width="4.45" height="4.45" fill="#00d4d5" opacity="0.7"/>
  <rect x="67.76" y="63.32" width="4.45" height="4.45" fill="#00d4d5" opacity="0.55"/>
  <rect x="72.21" y="63.32" width="13.34" height="4.45" fill="#00d4d5" opacity="0.86"/>
  <rect x="85.55" y="63.32" width="4.45" height="4.45" fill="#00d4d5" opacity="1"/>
  <rect x="90.00" y="63.32" width="26.68" height="4.45" fill="#00d4d5" opacity="0.86"/>
  <rect x="116.68" y="63.32" width="4.45" height="4.45" fill="#00d4d5" opacity="0.7"/>
  <rect x="121.13" y="63.32" width="4.45" height="4.45" fill="#00d4d5" opacity="0.4"/>
  <rect x="125.58" y="63.32" width="4.45" height="4.45" fill="#00d4d5" opacity="0.14"/>
  <rect x="134.47" y="63.32" width="8.89" height="4.45" fill="#00d4d5" opacity="0.4"/>
  <rect x="36.64" y="67.76" width="4.45" height="4.45" fill="#00d4d5" opacity="0.55"/>
  <rect x="41.08" y="67.76" width="8.89" height="4.45" fill="#00d4d5" opacity="0.86"/>
  <rect x="49.98" y="67.76" width="8.89" height="4.45" fill="#00d4d5" opacity="0.7"/>
  <rect x="58.87" y="67.76" width="4.45" height="4.45" fill="#00d4d5" opacity="0.86"/>
  <rect x="63.32" y="67.76" width="8.89" height="4.45" fill="#00d4d5" opacity="0.55"/>
  <rect x="72.21" y="67.76" width="44.47" height="4.45" fill="#00d4d5" opacity="0.86"/>
  <rect x="116.68" y="67.76" width="4.45" height="4.45" fill="#00d4d5" opacity="0.7"/>
  <rect x="121.13" y="67.76" width="4.45" height="4.45" fill="#00d4d5" opacity="0.26"/>
  <rect x="134.47" y="67.76" width="4.45" height="4.45" fill="#00d4d5" opacity="0.4"/>
  <rect x="138.92" y="67.76" width="4.45" height="4.45" fill="#00d4d5" opacity="0.55"/>
  <rect x="143.36" y="67.76" width="4.45" height="4.45" fill="#00d4d5" opacity="0.14"/>
  <rect x="36.64" y="72.21" width="4.45" height="4.45" fill="#00d4d5" opacity="0.55"/>
  <rect x="41.08" y="72.21" width="8.89" height="4.45" fill="#00d4d5" opacity="0.7"/>
  <rect x="49.98" y="72.21" width="4.45" height="4.45" fill="#00d4d5" opacity="0.86"/>
  <rect x="54.42" y="72.21" width="4.45" height="4.45" fill="#00d4d5" opacity="0.55"/>
  <rect x="58.87" y="72.21" width="4.45" height="4.45" fill="#00d4d5" opacity="0.7"/>
  <rect x="63.32" y="72.21" width="4.45" height="4.45" fill="#00d4d5" opacity="0.55"/>
  <rect x="67.76" y="72.21" width="4.45" height="4.45" fill="#00d4d5" opacity="0.4"/>
  <rect x="72.21" y="72.21" width="8.89" height="4.45" fill="#00d4d5" opacity="0.86"/>
  <rect x="81.11" y="72.21" width="4.45" height="4.45" fill="#00d4d5" opacity="0.7"/>
  <rect x="85.55" y="72.21" width="4.45" height="4.45" fill="#00d4d5" opacity="0.4"/>
  <rect x="90.00" y="72.21" width="4.45" height="4.45" fill="#00d4d5" opacity="0.26"/>
  <rect x="94.45" y="72.21" width="4.45" height="4.45" fill="#00d4d5" opacity="0.4"/>
  <rect x="98.89" y="72.21" width="4.45" height="4.45" fill="#00d4d5" opacity="0.55"/>
  <rect x="103.34" y="72.21" width="8.89" height="4.45" fill="#00d4d5" opacity="0.7"/>
  <rect x="112.24" y="72.21" width="4.45" height="4.45" fill="#00d4d5" opacity="0.55"/>
  <rect x="116.68" y="72.21" width="4.45" height="4.45" fill="#00d4d5" opacity="0.14"/>
  <rect x="134.47" y="72.21" width="4.45" height="4.45" fill="#00d4d5" opacity="0.26"/>
  <rect x="138.92" y="72.21" width="4.45" height="4.45" fill="#00d4d5" opacity="0.55"/>
  <rect x="143.36" y="72.21" width="4.45" height="4.45" fill="#00d4d5" opacity="0.26"/>
  <rect x="32.19" y="76.66" width="4.45" height="4.45" fill="#00d4d5" opacity="0.14"/>
  <rect x="36.64" y="76.66" width="4.45" height="4.45" fill="#00d4d5" opacity="0.55"/>
  <rect x="41.08" y="76.66" width="4.45" height="4.45" fill="#00d4d5" opacity="0.7"/>
  <rect x="45.53" y="76.66" width="4.45" height="4.45" fill="#00d4d5" opacity="0.86"/>
  <rect x="49.98" y="76.66" width="13.34" height="4.45" fill="#00d4d5" opacity="0.7"/>
  <rect x="63.32" y="76.66" width="4.45" height="4.45" fill="#00d4d5" opacity="0.55"/>
  <rect x="67.76" y="76.66" width="4.45" height="4.45" fill="#00d4d5" opacity="0.4"/>
  <rect x="72.21" y="76.66" width="13.34" height="4.45" fill="#00d4d5" opacity="0.7"/>
  <rect x="85.55" y="76.66" width="4.45" height="4.45" fill="#00d4d5" opacity="0.55"/>
  <rect x="90.00" y="76.66" width="4.45" height="4.45" fill="#00d4d5" opacity="0.4"/>
  <rect x="94.45" y="76.66" width="8.89" height="4.45" fill="#00d4d5" opacity="0.26"/>
  <rect x="103.34" y="76.66" width="4.45" height="4.45" fill="#00d4d5" opacity="0.7"/>
  <rect x="107.79" y="76.66" width="4.45" height="4.45" fill="#00d4d5" opacity="0.4"/>
  <rect x="116.68" y="76.66" width="4.45" height="4.45" fill="#00d4d5" opacity="0.14"/>
  <rect x="121.13" y="76.66" width="4.45" height="4.45" fill="#00d4d5" opacity="0.26"/>
  <rect x="134.47" y="76.66" width="4.45" height="4.45" fill="#00d4d5" opacity="0.14"/>
  <rect x="138.92" y="76.66" width="4.45" height="4.45" fill="#00d4d5" opacity="0.4"/>
  <rect x="143.36" y="76.66" width="4.45" height="4.45" fill="#00d4d5" opacity="0.14"/>
  <rect x="32.19" y="81.11" width="4.45" height="4.45" fill="#00d4d5" opacity="0.26"/>
  <rect x="36.64" y="81.11" width="4.45" height="4.45" fill="#00d4d5" opacity="0.4"/>
  <rect x="41.08" y="81.11" width="22.24" height="4.45" fill="#00d4d5" opacity="0.7"/>
  <rect x="63.32" y="81.11" width="4.45" height="4.45" fill="#00d4d5" opacity="0.55"/>
  <rect x="67.76" y="81.11" width="4.45" height="4.45" fill="#00d4d5" opacity="0.4"/>
  <rect x="72.21" y="81.11" width="4.45" height="4.45" fill="#00d4d5" opacity="0.7"/>
  <rect x="76.66" y="81.11" width="4.45" height="4.45" fill="#00d4d5" opacity="0.86"/>
  <rect x="81.11" y="81.11" width="4.45" height="4.45" fill="#00d4d5" opacity="0.55"/>
  <rect x="85.55" y="81.11" width="4.45" height="4.45" fill="#00d4d5" opacity="0.4"/>
  <rect x="90.00" y="81.11" width="4.45" height="4.45" fill="#00d4d5" opacity="0.26"/>
  <rect x="94.45" y="81.11" width="8.89" height="4.45" fill="#00d4d5" opacity="0.4"/>
  <rect x="103.34" y="81.11" width="4.45" height="4.45" fill="#00d4d5" opacity="0.7"/>
  <rect x="107.79" y="81.11" width="4.45" height="4.45" fill="#00d4d5" opacity="0.55"/>
  <rect x="112.24" y="81.11" width="4.45" height="4.45" fill="#00d4d5" opacity="0.14"/>
  <rect x="116.68" y="81.11" width="4.45" height="4.45" fill="#00d4d5" opacity="0.26"/>
  <rect x="121.13" y="81.11" width="4.45" height="4.45" fill="#00d4d5" opacity="0.14"/>
  <rect x="134.47" y="81.11" width="4.45" height="4.45" fill="#00d4d5" opacity="0.26"/>
  <rect x="138.92" y="81.11" width="4.45" height="4.45" fill="#00d4d5" opacity="0.4"/>
  <rect x="143.36" y="81.11" width="4.45" height="4.45" fill="#00d4d5" opacity="0.14"/>
  <rect x="36.64" y="85.55" width="17.79" height="4.45" fill="#00d4d5" opacity="0.55"/>
  <rect x="54.42" y="85.55" width="8.89" height="4.45" fill="#00d4d5" opacity="0.7"/>
  <rect x="63.32" y="85.55" width="4.45" height="4.45" fill="#00d4d5" opacity="0.55"/>
  <rect x="67.76" y="85.55" width="4.45" height="4.45" fill="#00d4d5" opacity="0.26"/>
  <rect x="72.21" y="85.55" width="4.45" height="4.45" fill="#00d4d5" opacity="0.7"/>
  <rect x="76.66" y="85.55" width="13.34" height="4.45" fill="#00d4d5" opacity="0.86"/>
  <rect x="90.00" y="85.55" width="4.45" height="4.45" fill="#00d4d5" opacity="0.7"/>
  <rect x="94.45" y="85.55" width="4.45" height="4.45" fill="#00d4d5" opacity="0.55"/>
  <rect x="98.89" y="85.55" width="4.45" height="4.45" fill="#00d4d5" opacity="0.7"/>
  <rect x="103.34" y="85.55" width="4.45" height="4.45" fill="#00d4d5" opacity="0.86"/>
  <rect x="107.79" y="85.55" width="4.45" height="4.45" fill="#00d4d5" opacity="0.7"/>
  <rect x="112.24" y="85.55" width="4.45" height="4.45" fill="#00d4d5" opacity="0.26"/>
  <rect x="116.68" y="85.55" width="4.45" height="4.45" fill="#00d4d5" opacity="0.4"/>
  <rect x="121.13" y="85.55" width="4.45" height="4.45" fill="#00d4d5" opacity="0.26"/>
  <rect x="125.58" y="85.55" width="4.45" height="4.45" fill="#00d4d5" opacity="0.14"/>
  <rect x="138.92" y="85.55" width="4.45" height="4.45" fill="#00d4d5" opacity="0.26"/>
  <rect x="32.19" y="90.00" width="4.45" height="4.45" fill="#00d4d5" opacity="0.14"/>
  <rect x="36.64" y="90.00" width="4.45" height="4.45" fill="#00d4d5" opacity="0.4"/>
  <rect x="41.08" y="90.00" width="4.45" height="4.45" fill="#00d4d5" opacity="0.55"/>
  <rect x="45.53" y="90.00" width="13.34" height="4.45" fill="#00d4d5" opacity="0.7"/>
  <rect x="58.87" y="90.00" width="4.45" height="4.45" fill="#00d4d5" opacity="0.55"/>
  <rect x="63.32" y="90.00" width="4.45" height="4.45" fill="#00d4d5" opacity="0.4"/>
  <rect x="67.76" y="90.00" width="4.45" height="4.45" fill="#00d4d5" opacity="0.26"/>
  <rect x="72.21" y="90.00" width="8.89" height="4.45" fill="#00d4d5" opacity="0.7"/>
  <rect x="81.11" y="90.00" width="8.89" height="4.45" fill="#00d4d5" opacity="0.86"/>
  <rect x="90.00" y="90.00" width="4.45" height="4.45" fill="#00d4d5" opacity="0.7"/>
  <rect x="94.45" y="90.00" width="13.34" height="4.45" fill="#00d4d5" opacity="0.86"/>
  <rect x="107.79" y="90.00" width="4.45" height="4.45" fill="#00d4d5" opacity="0.7"/>
  <rect x="112.24" y="90.00" width="4.45" height="4.45" fill="#00d4d5" opacity="0.4"/>
  <rect x="116.68" y="90.00" width="4.45" height="4.45" fill="#00d4d5" opacity="0.26"/>
  <rect x="121.13" y="90.00" width="8.89" height="4.45" fill="#00d4d5" opacity="0.4"/>
  <rect x="138.92" y="90.00" width="4.45" height="4.45" fill="#00d4d5" opacity="0.26"/>
  <rect x="143.36" y="90.00" width="4.45" height="4.45" fill="#00d4d5" opacity="0.14"/>
  <rect x="32.19" y="94.45" width="4.45" height="4.45" fill="#00d4d5" opacity="0.14"/>
  <rect x="36.64" y="94.45" width="4.45" height="4.45" fill="#00d4d5" opacity="0.4"/>
  <rect x="41.08" y="94.45" width="4.45" height="4.45" fill="#00d4d5" opacity="0.55"/>
  <rect x="45.53" y="94.45" width="4.45" height="4.45" fill="#00d4d5" opacity="0.7"/>
  <rect x="49.98" y="94.45" width="4.45" height="4.45" fill="#00d4d5" opacity="0.55"/>
  <rect x="54.42" y="94.45" width="4.45" height="4.45" fill="#00d4d5" opacity="0.4"/>
  <rect x="58.87" y="94.45" width="4.45" height="4.45" fill="#00d4d5" opacity="0.55"/>
  <rect x="63.32" y="94.45" width="4.45" height="4.45" fill="#00d4d5" opacity="0.4"/>
  <rect x="67.76" y="94.45" width="4.45" height="4.45" fill="#00d4d5" opacity="0.26"/>
  <rect x="72.21" y="94.45" width="4.45" height="4.45" fill="#00d4d5" opacity="0.55"/>
  <rect x="76.66" y="94.45" width="8.89" height="4.45" fill="#00d4d5" opacity="0.7"/>
  <rect x="85.55" y="94.45" width="8.89" height="4.45" fill="#00d4d5" opacity="0.86"/>
  <rect x="94.45" y="94.45" width="17.79" height="4.45" fill="#00d4d5" opacity="0.7"/>
  <rect x="112.24" y="94.45" width="4.45" height="4.45" fill="#00d4d5" opacity="0.55"/>
  <rect x="116.68" y="94.45" width="4.45" height="4.45" fill="#00d4d5" opacity="0.14"/>
  <rect x="121.13" y="94.45" width="4.45" height="4.45" fill="#00d4d5" opacity="0.4"/>
  <rect x="125.58" y="94.45" width="4.45" height="4.45" fill="#00d4d5" opacity="0.26"/>
  <rect x="138.92" y="94.45" width="4.45" height="4.45" fill="#00d4d5" opacity="0.26"/>
  <rect x="143.36" y="94.45" width="4.45" height="4.45" fill="#00d4d5" opacity="0.14"/>
  <rect x="36.64" y="98.89" width="4.45" height="4.45" fill="#00d4d5" opacity="0.4"/>
  <rect x="41.08" y="98.89" width="8.89" height="4.45" fill="#00d4d5" opacity="0.55"/>
  <rect x="49.98" y="98.89" width="4.45" height="4.45" fill="#00d4d5" opacity="0.4"/>
  <rect x="54.42" y="98.89" width="4.45" height="4.45" fill="#00d4d5" opacity="0.55"/>
  <rect x="58.87" y="98.89" width="4.45" height="4.45" fill="#00d4d5" opacity="0.4"/>
  <rect x="63.32" y="98.89" width="4.45" height="4.45" fill="#00d4d5" opacity="0.14"/>
  <rect x="67.76" y="98.89" width="4.45" height="4.45" fill="#00d4d5" opacity="0.26"/>
  <rect x="72.21" y="98.89" width="8.89" height="4.45" fill="#00d4d5" opacity="0.55"/>
  <rect x="81.11" y="98.89" width="17.79" height="4.45" fill="#00d4d5" opacity="0.7"/>
  <rect x="98.89" y="98.89" width="4.45" height="4.45" fill="#00d4d5" opacity="0.4"/>
  <rect x="103.34" y="98.89" width="13.34" height="4.45" fill="#00d4d5" opacity="0.26"/>
  <rect x="121.13" y="98.89" width="4.45" height="4.45" fill="#00d4d5" opacity="0.4"/>
  <rect x="125.58" y="98.89" width="4.45" height="4.45" fill="#00d4d5" opacity="0.26"/>
  <rect x="138.92" y="98.89" width="8.89" height="4.45" fill="#00d4d5" opacity="0.14"/>
  <rect x="36.64" y="103.34" width="4.45" height="4.45" fill="#00d4d5" opacity="0.4"/>
  <rect x="41.08" y="103.34" width="4.45" height="4.45" fill="#00d4d5" opacity="0.55"/>
  <rect x="45.53" y="103.34" width="8.89" height="4.45" fill="#00d4d5" opacity="0.4"/>
  <rect x="54.42" y="103.34" width="4.45" height="4.45" fill="#00d4d5" opacity="0.55"/>
  <rect x="58.87" y="103.34" width="4.45" height="4.45" fill="#00d4d5" opacity="0.26"/>
  <rect x="63.32" y="103.34" width="8.89" height="4.45" fill="#00d4d5" opacity="0.14"/>
  <rect x="72.21" y="103.34" width="8.89" height="4.45" fill="#00d4d5" opacity="0.55"/>
  <rect x="81.11" y="103.34" width="13.34" height="4.45" fill="#00d4d5" opacity="0.7"/>
  <rect x="94.45" y="103.34" width="4.45" height="4.45" fill="#00d4d5" opacity="0.55"/>
  <rect x="98.89" y="103.34" width="8.89" height="4.45" fill="#00d4d5" opacity="0.7"/>
  <rect x="107.79" y="103.34" width="4.45" height="4.45" fill="#00d4d5" opacity="0.4"/>
  <rect x="121.13" y="103.34" width="8.89" height="4.45" fill="#00d4d5" opacity="0.26"/>
  <rect x="138.92" y="103.34" width="8.89" height="4.45" fill="#00d4d5" opacity="0.14"/>
  <rect x="36.64" y="107.79" width="8.89" height="4.45" fill="#00d4d5" opacity="0.26"/>
  <rect x="45.53" y="107.79" width="8.89" height="4.45" fill="#00d4d5" opacity="0.4"/>
  <rect x="54.42" y="107.79" width="4.45" height="4.45" fill="#00d4d5" opacity="0.55"/>
  <rect x="58.87" y="107.79" width="4.45" height="4.45" fill="#00d4d5" opacity="0.26"/>
  <rect x="63.32" y="107.79" width="8.89" height="4.45" fill="#00d4d5" opacity="0.14"/>
  <rect x="72.21" y="107.79" width="4.45" height="4.45" fill="#00d4d5" opacity="0.4"/>
  <rect x="76.66" y="107.79" width="4.45" height="4.45" fill="#00d4d5" opacity="0.55"/>
  <rect x="81.11" y="107.79" width="8.89" height="4.45" fill="#00d4d5" opacity="0.7"/>
  <rect x="90.00" y="107.79" width="8.89" height="4.45" fill="#00d4d5" opacity="0.55"/>
  <rect x="98.89" y="107.79" width="8.89" height="4.45" fill="#00d4d5" opacity="0.7"/>
  <rect x="107.79" y="107.79" width="4.45" height="4.45" fill="#00d4d5" opacity="0.4"/>
  <rect x="112.24" y="107.79" width="4.45" height="4.45" fill="#00d4d5" opacity="0.26"/>
  <rect x="116.68" y="107.79" width="13.34" height="4.45" fill="#00d4d5" opacity="0.14"/>
  <rect x="36.64" y="112.24" width="4.45" height="4.45" fill="#00d4d5" opacity="0.14"/>
  <rect x="41.08" y="112.24" width="4.45" height="4.45" fill="#00d4d5" opacity="0.26"/>
  <rect x="45.53" y="112.24" width="4.45" height="4.45" fill="#00d4d5" opacity="0.55"/>
  <rect x="49.98" y="112.24" width="4.45" height="4.45" fill="#00d4d5" opacity="0.4"/>
  <rect x="54.42" y="112.24" width="4.45" height="4.45" fill="#00d4d5" opacity="0.55"/>
  <rect x="58.87" y="112.24" width="4.45" height="4.45" fill="#00d4d5" opacity="0.26"/>
  <rect x="63.32" y="112.24" width="8.89" height="4.45" fill="#00d4d5" opacity="0.14"/>
  <rect x="72.21" y="112.24" width="4.45" height="4.45" fill="#00d4d5" opacity="0.4"/>
  <rect x="76.66" y="112.24" width="8.89" height="4.45" fill="#00d4d5" opacity="0.55"/>
  <rect x="85.55" y="112.24" width="8.89" height="4.45" fill="#00d4d5" opacity="0.7"/>
  <rect x="94.45" y="112.24" width="13.34" height="4.45" fill="#00d4d5" opacity="0.4"/>
  <rect x="107.79" y="112.24" width="4.45" height="4.45" fill="#00d4d5" opacity="0.26"/>
  <rect x="112.24" y="112.24" width="4.45" height="4.45" fill="#00d4d5" opacity="0.14"/>
  <rect x="121.13" y="112.24" width="4.45" height="4.45" fill="#00d4d5" opacity="0.26"/>
  <rect x="125.58" y="112.24" width="4.45" height="4.45" fill="#00d4d5" opacity="0.14"/>
  <rect x="41.08" y="116.68" width="8.89" height="4.45" fill="#00d4d5" opacity="0.4"/>
  <rect x="49.98" y="116.68" width="4.45" height="4.45" fill="#00d4d5" opacity="0.26"/>
  <rect x="54.42" y="116.68" width="4.45" height="4.45" fill="#00d4d5" opacity="0.4"/>
  <rect x="58.87" y="116.68" width="4.45" height="4.45" fill="#00d4d5" opacity="0.14"/>
  <rect x="72.21" y="116.68" width="4.45" height="4.45" fill="#00d4d5" opacity="0.26"/>
  <rect x="76.66" y="116.68" width="31.13" height="4.45" fill="#00d4d5" opacity="0.55"/>
  <rect x="107.79" y="116.68" width="4.45" height="4.45" fill="#00d4d5" opacity="0.4"/>
  <rect x="112.24" y="116.68" width="4.45" height="4.45" fill="#00d4d5" opacity="0.26"/>
  <rect x="116.68" y="116.68" width="8.89" height="4.45" fill="#00d4d5" opacity="0.14"/>
  <rect x="41.08" y="121.13" width="8.89" height="4.45" fill="#00d4d5" opacity="0.4"/>
  <rect x="49.98" y="121.13" width="4.45" height="4.45" fill="#00d4d5" opacity="0.14"/>
  <rect x="54.42" y="121.13" width="4.45" height="4.45" fill="#00d4d5" opacity="0.26"/>
  <rect x="58.87" y="121.13" width="4.45" height="4.45" fill="#00d4d5" opacity="0.14"/>
  <rect x="72.21" y="121.13" width="4.45" height="4.45" fill="#00d4d5" opacity="0.26"/>
  <rect x="76.66" y="121.13" width="4.45" height="4.45" fill="#00d4d5" opacity="0.4"/>
  <rect x="81.11" y="121.13" width="13.34" height="4.45" fill="#00d4d5" opacity="0.55"/>
  <rect x="94.45" y="121.13" width="8.89" height="4.45" fill="#00d4d5" opacity="0.7"/>
  <rect x="103.34" y="121.13" width="4.45" height="4.45" fill="#00d4d5" opacity="0.55"/>
  <rect x="107.79" y="121.13" width="4.45" height="4.45" fill="#00d4d5" opacity="0.4"/>
  <rect x="112.24" y="121.13" width="4.45" height="4.45" fill="#00d4d5" opacity="0.26"/>
  <rect x="116.68" y="121.13" width="4.45" height="4.45" fill="#00d4d5" opacity="0.14"/>
  <rect x="41.08" y="125.58" width="4.45" height="4.45" fill="#00d4d5" opacity="0.14"/>
  <rect x="45.53" y="125.58" width="4.45" height="4.45" fill="#00d4d5" opacity="0.26"/>
  <rect x="49.98" y="125.58" width="8.89" height="4.45" fill="#00d4d5" opacity="0.14"/>
  <rect x="72.21" y="125.58" width="4.45" height="4.45" fill="#00d4d5" opacity="0.14"/>
  <rect x="76.66" y="125.58" width="8.89" height="4.45" fill="#00d4d5" opacity="0.26"/>
  <rect x="85.55" y="125.58" width="8.89" height="4.45" fill="#00d4d5" opacity="0.4"/>
  <rect x="94.45" y="125.58" width="4.45" height="4.45" fill="#00d4d5" opacity="0.55"/>
  <rect x="98.89" y="125.58" width="13.34" height="4.45" fill="#00d4d5" opacity="0.7"/>
  <rect x="112.24" y="125.58" width="4.45" height="4.45" fill="#00d4d5" opacity="0.4"/>
  <rect x="116.68" y="125.58" width="4.45" height="4.45" fill="#00d4d5" opacity="0.14"/>
  <rect x="45.53" y="130.02" width="8.89" height="4.45" fill="#00d4d5" opacity="0.14"/>
  <rect x="72.21" y="130.02" width="22.24" height="4.45" fill="#00d4d5" opacity="0.26"/>
  <rect x="94.45" y="130.02" width="4.45" height="4.45" fill="#00d4d5" opacity="0.4"/>
  <rect x="98.89" y="130.02" width="13.34" height="4.45" fill="#00d4d5" opacity="0.55"/>
  <rect x="112.24" y="130.02" width="4.45" height="4.45" fill="#00d4d5" opacity="0.26"/>
  <rect x="72.21" y="134.47" width="4.45" height="4.45" fill="#00d4d5" opacity="0.55"/>
  <rect x="76.66" y="134.47" width="4.45" height="4.45" fill="#00d4d5" opacity="0.7"/>
  <rect x="81.11" y="134.47" width="13.34" height="4.45" fill="#00d4d5" opacity="0.4"/>
  <rect x="94.45" y="134.47" width="4.45" height="4.45" fill="#00d4d5" opacity="0.55"/>
  <rect x="98.89" y="134.47" width="4.45" height="4.45" fill="#00d4d5" opacity="0.4"/>
  <rect x="103.34" y="134.47" width="4.45" height="4.45" fill="#00d4d5" opacity="0.26"/>
  <rect x="107.79" y="134.47" width="4.45" height="4.45" fill="#00d4d5" opacity="0.14"/>
  <rect x="72.21" y="138.92" width="4.45" height="4.45" fill="#00d4d5" opacity="0.55"/>
  <rect x="76.66" y="138.92" width="4.45" height="4.45" fill="#00d4d5" opacity="1"/>
  <rect x="81.11" y="138.92" width="4.45" height="4.45" fill="#00d4d5" opacity="0.86"/>
  <rect x="85.55" y="138.92" width="4.45" height="4.45" fill="#00d4d5" opacity="0.55"/>
  <rect x="90.00" y="138.92" width="8.89" height="4.45" fill="#00d4d5" opacity="0.4"/>
  <rect x="98.89" y="138.92" width="4.45" height="4.45" fill="#00d4d5" opacity="0.26"/>
  <rect x="103.34" y="138.92" width="4.45" height="4.45" fill="#00d4d5" opacity="0.14"/>
  <rect x="72.21" y="143.36" width="4.45" height="4.45" fill="#00d4d5" opacity="0.26"/>
  <rect x="76.66" y="143.36" width="4.45" height="4.45" fill="#00d4d5" opacity="0.86"/>
  <rect x="81.11" y="143.36" width="4.45" height="4.45" fill="#00d4d5" opacity="1"/>
  <rect x="85.55" y="143.36" width="8.89" height="4.45" fill="#00d4d5" opacity="0.86"/>
  <rect x="94.45" y="143.36" width="4.45" height="4.45" fill="#00d4d5" opacity="0.55"/>
  <rect x="98.89" y="143.36" width="4.45" height="4.45" fill="#00d4d5" opacity="0.26"/>
  <rect x="103.34" y="143.36" width="4.45" height="4.45" fill="#00d4d5" opacity="0.14"/>
  <rect x="72.21" y="147.81" width="4.45" height="4.45" fill="#00d4d5" opacity="0.14"/>
  <rect x="76.66" y="147.81" width="4.45" height="4.45" fill="#00d4d5" opacity="0.86"/>
  <rect x="81.11" y="147.81" width="13.34" height="4.45" fill="#00d4d5" opacity="1"/>
  <rect x="94.45" y="147.81" width="8.89" height="4.45" fill="#00d4d5" opacity="0.86"/>
  <rect x="103.34" y="147.81" width="4.45" height="4.45" fill="#00d4d5" opacity="0.55"/>
  <rect x="107.79" y="147.81" width="4.45" height="4.45" fill="#00d4d5" opacity="0.4"/>
  <rect x="112.24" y="147.81" width="4.45" height="4.45" fill="#00d4d5" opacity="0.26"/>
  <rect x="116.68" y="147.81" width="4.45" height="4.45" fill="#00d4d5" opacity="0.14"/>
  <rect x="76.66" y="152.26" width="4.45" height="4.45" fill="#00d4d5" opacity="0.55"/>
  <rect x="81.11" y="152.26" width="22.24" height="4.45" fill="#00d4d5" opacity="1"/>
  <rect x="103.34" y="152.26" width="8.89" height="4.45" fill="#00d4d5" opacity="0.86"/>
  <rect x="112.24" y="152.26" width="4.45" height="4.45" fill="#00d4d5" opacity="0.4"/>
  <rect x="76.66" y="156.71" width="4.45" height="4.45" fill="#00d4d5" opacity="0.14"/>
  <rect x="81.11" y="156.71" width="4.45" height="4.45" fill="#00d4d5" opacity="0.86"/>
  <rect x="85.55" y="156.71" width="17.79" height="4.45" fill="#00d4d5" opacity="1"/>
  <rect x="103.34" y="156.71" width="4.45" height="4.45" fill="#00d4d5" opacity="0.86"/>
  <rect x="107.79" y="156.71" width="4.45" height="4.45" fill="#00d4d5" opacity="0.55"/>
  <rect x="81.11" y="161.15" width="4.45" height="4.45" fill="#00d4d5" opacity="0.7"/>
  <rect x="85.55" y="161.15" width="17.79" height="4.45" fill="#00d4d5" opacity="1"/>
  <rect x="103.34" y="161.15" width="4.45" height="4.45" fill="#00d4d5" opacity="0.55"/>
</svg>
